HIERARCHY
ROOT Hips
{
	OFFSET 0.000000 0.000000 0.000000
	CHANNELS 6 Xposition Yposition Zposition Xrotation Yrotation Zrotation
	JOINT LeftUpLeg_virtual
	{
		OFFSET 0.000000 0.000000 0.000000
		CHANNELS 3 Xrotation Yrotation Zrotation
		JOINT LeftUpLeg
		{
			OFFSET 11.394100 -6.187798 -0.413800
			CHANNELS 3 Xrotation Yrotation Zrotation
			JOINT LeftLeg
			{
				OFFSET 0.430247 -32.302673 3.732800
				CHANNELS 3 Xrotation Yrotation Zrotation
				JOINT LeftFoot
				{
					OFFSET -0.430247 -48.264931 -6.423300
					CHANNELS 3 Xrotation Yrotation Zrotation
					JOINT LeftToeBase
					{
						OFFSET 4.230900 -16.068199 23.438400
						CHANNELS 3 Xrotation Yrotation Zrotation
						JOINT LeftToe_End
						{
							OFFSET 4.510700 0.695400 19.974600
							CHANNELS 3 Xrotation Yrotation Zrotation
							End Site
							{
								OFFSET 0 0 0
							}
						}
					}
				}
			}
		}
	}
	JOINT RightUpLeg_virtual
	{
		OFFSET 0.000000 0.000000 0.000000
		CHANNELS 3 Xrotation Yrotation Zrotation
		JOINT RightUpLeg
		{
			OFFSET -11.333700 -6.187798 -0.413800
			CHANNELS 3 Xrotation Yrotation Zrotation
			JOINT RightLeg
			{
				OFFSET -0.430392 -32.302628 3.733000
				CHANNELS 3 Xrotation Yrotation Zrotation
				JOINT RightFoot
				{
					OFFSET 0.430392 -48.264973 -6.423500
					CHANNELS 3 Xrotation Yrotation Zrotation
					JOINT RightToeBase
					{
						OFFSET -4.230900 -16.068199 23.438400
						CHANNELS 3 Xrotation Yrotation Zrotation
						JOINT RightToe_End
						{
							OFFSET -4.510700 0.695400 19.974600
							CHANNELS 3 Xrotation Yrotation Zrotation
							End Site
							{
								OFFSET 0 0 0
							}
						}
					}
				}
			}
		}
	}
	JOINT Spine_virtual
	{
		OFFSET 0.000000 0.000000 0.000000
		CHANNELS 3 Xrotation Yrotation Zrotation
		JOINT Spine
		{
			OFFSET -0.002400 12.777504 0.315300
			CHANNELS 3 Xrotation Yrotation Zrotation
			JOINT Spine1
			{
				OFFSET -0.002067 5.816869 0.032633
				CHANNELS 3 Xrotation Yrotation Zrotation
				JOINT Spine1_split
				{
					OFFSET -0.002067 5.816869 0.032633
					CHANNELS 3 Xrotation Yrotation Zrotation
					JOINT Spine2
					{
						OFFSET -0.002067 5.816869 0.032633
						CHANNELS 3 Xrotation Yrotation Zrotation
						JOINT Neck_virtual
						{
							OFFSET 0.000000 0.000000 0.000000
							CHANNELS 3 Xrotation Yrotation Zrotation
							JOINT Neck
							{
								OFFSET -0.003700 21.199493 -0.826900
								CHANNELS 3 Xrotation Yrotation Zrotation
								JOINT Head
								{
									OFFSET 0.000000 20.442200 4.834800
									CHANNELS 3 Xrotation Yrotation Zrotation
									JOINT HeadTop_End
									{
										OFFSET 0.000000 34.668396 4.968400
										CHANNELS 3 Xrotation Yrotation Zrotation
										End Site
										{
											OFFSET 0 0 0
										}
									}
								}
							}
						}
						JOINT LeftShoulder_virtual
						{
							OFFSET 0.000000 0.000000 0.000000
							CHANNELS 3 Xrotation Yrotation Zrotation
							JOINT LeftShoulder
							{
								OFFSET 3.288150 8.794197 -1.372250
								CHANNELS 3 Xrotation Yrotation Zrotation
								JOINT LeftShoulder_split
								{
									OFFSET 3.288150 8.794197 -1.372250
									CHANNELS 3 Xrotation Yrotation Zrotation
									JOINT LeftArm
									{
										OFFSET 11.953299 -2.279007 -0.146200
										CHANNELS 3 Xrotation Yrotation Zrotation
										JOINT LeftForeArm
										{
											OFFSET 18.448900 0.000000 0.000000
											CHANNELS 3 Xrotation Yrotation Zrotation
											JOINT LeftHand
											{
												OFFSET 29.527798 0.000000 0.000000
												CHANNELS 3 Xrotation Yrotation Zrotation
												End Site
												{
													OFFSET 0 0 0
												}
											}
										}
									}
								}
							}
						}
						JOINT RightShoulder_virtual
						{
							OFFSET 0.000000 0.000000 0.000000
							CHANNELS 3 Xrotation Yrotation Zrotation
							JOINT RightShoulder
							{
								OFFSET -3.249400 8.794197 -1.372250
								CHANNELS 3 Xrotation Yrotation Zrotation
								JOINT RightShoulder_split
								{
									OFFSET -3.249400 8.794197 -1.372250
									CHANNELS 3 Xrotation Yrotation Zrotation
									JOINT RightArm
									{
										OFFSET -11.953299 -2.279007 -0.146200
										CHANNELS 3 Xrotation Yrotation Zrotation
										JOINT RightForeArm
										{
											OFFSET -18.448900 0.000000 0.000000
											CHANNELS 3 Xrotation Yrotation Zrotation
											JOINT RightHand
											{
												OFFSET -29.527802 0.000000 0.000000
												CHANNELS 3 Xrotation Yrotation Zrotation
												End Site
												{
													OFFSET 0 0 0
												}
											}
										}
									}
								}
							}
						}
					}
				}
			}
		}
	}
}
MOTION
Frames: 6
Frame Time: 0.03333333
0.073267 83.184738 1.631927 0.000000 0.000000 0.000000 -5.127845 -52.228390 0.657470 -36.697384 7.411407 15.480322 57.570988 -2.781900 5.402294 -21.558121 -9.573017 -12.473712 -2.225853 0.022635 -0.728072 0.000000 0.000000 0.000000 -6.679352 -46.554952 1.082064 -27.335764 -11.150707 -27.295801 57.710208 -12.490963 -10.800821 -24.320205 -5.476555 20.572853 -0.911196 1.336151 0.911615 0.000000 0.000000 0.000000 -4.252087 -50.917179 1.631120 10.183656 6.581265 -1.656143 1.945413 1.127247 -0.738295 0.259881 -0.461539 0.791111 0.000000 0.000000 0.000000 2.657560 1.161692 -0.649672 -1.143350 13.541294 3.278174 8.840332 20.626855 -4.557959 0.000000 0.000000 0.000000 3.494238 0.986532 -0.828092 1.619103 2.874038 -12.019277 -2.851776 0.418901 0.016616 -52.209648 2.306396 -50.391514 -178.848599 -74.504837 -178.556663 0.000000 0.000000 0.000000 3.677930 1.305240 -0.517814 3.448865 11.537282 -5.978067 -2.427657 1.976058 0.684665 -49.504870 26.869028 87.535438 -173.348302 71.892543 171.044958 0.000000 0.000000 0.000000 
-0.201555 83.613846 1.971161 0.000000 0.000000 0.000000 -4.861877 -52.003841 0.883235 -36.451681 7.726956 15.502837 56.664680 -3.073465 5.415925 -21.573776 -9.916977 -12.607633 -2.451021 0.046268 -0.480316 0.000000 0.000000 0.000000 -6.335993 -46.917249 1.340833 -27.436235 -11.640300 -27.720931 57.026499 -12.269399 -10.692143 -22.800218 -4.497039 19.195415 -1.013635 1.380651 1.825651 0.000000 0.000000 0.000000 -3.203498 -50.449229 2.400630 9.953086 6.735016 -1.727152 2.044435 1.208694 -0.823014 0.392488 -0.397783 0.712076 0.000000 0.000000 0.000000 2.669088 1.255522 -0.790961 -1.054165 13.466688 3.107030 9.069812 20.568954 -4.418980 0.000000 0.000000 0.000000 3.655753 1.030310 -0.878374 1.548064 2.344198 -11.417743 -3.023226 0.408550 -0.071513 -52.839211 2.846231 -50.197591 -179.352968 -75.294708 -178.914428 0.000000 0.000000 0.000000 3.794996 1.367581 -0.635611 3.522878 11.783914 -5.717562 -2.814115 2.763264 0.987417 -50.080470 27.373761 87.570668 -173.935808 72.182696 171.822397 0.000000 0.000000 0.000000 
-0.708921 84.530312 2.114548 0.000000 0.000000 0.000000 -4.254573 -51.055159 1.514484 -35.974070 8.001956 15.505525 55.063052 -3.467868 5.359030 -21.355416 -10.658977 -12.627733 -2.819294 0.044452 0.105795 0.000000 0.000000 0.000000 -5.686001 -46.977775 2.098431 -28.851525 -11.142372 -28.920708 57.067935 -11.264926 -10.451285 -18.483943 -2.160852 18.888871 -3.250026 1.405032 2.998379 0.000000 0.000000 0.000000 -1.905670 -49.256626 3.463911 9.776326 7.052578 -1.961801 2.099619 1.440665 -1.005023 0.384772 -0.439486 0.644622 0.000000 0.000000 0.000000 2.613999 1.451090 -1.011900 -0.793786 13.310033 2.659062 9.337990 19.999458 -4.001104 0.000000 0.000000 0.000000 3.621148 1.217245 -1.054659 1.470064 1.332326 -10.746107 -2.854288 0.105856 -0.425921 -54.930458 3.478782 -48.896194 -179.898290 -75.204112 -179.256703 0.000000 0.000000 0.000000 3.833292 1.524343 -0.869320 3.620656 12.278086 -5.487548 -2.781474 2.643537 1.137889 -51.806677 27.211909 87.546646 -174.309474 72.837629 172.473396 0.000000 0.000000 0.000000 
-1.389328 85.683739 2.156147 0.000000 0.000000 0.000000 -3.424600 -49.505949 2.343391 -35.365401 8.195342 15.532332 53.083991 -3.823907 5.228208 -21.023254 -11.644827 -12.496129 -3.161665 0.015120 0.806031 0.000000 0.000000 0.000000 -4.746311 -46.346812 3.131472 -30.889732 -9.804651 -30.400947 57.667895 -9.783943 -10.200415 -13.403277 0.715394 18.976390 -5.987270 1.366053 3.970236 0.000000 0.000000 0.000000 -0.760755 -47.507931 4.477046 9.674556 7.394163 -2.282788 2.091504 1.715564 -1.186348 0.184839 -0.598212 0.697788 0.000000 0.000000 0.000000 2.540768 1.669432 -1.192124 -0.446019 13.137149 2.054622 9.586650 19.056993 -3.369877 0.000000 0.000000 0.000000 3.410570 1.461444 -1.238891 1.419428 -0.017760 -10.055154 -2.545971 -0.469639 -0.968527 -58.152654 4.131673 -46.550338 179.824292 -74.286271 -179.306850 0.000000 0.000000 0.000000 3.751543 1.706779 -1.098390 3.718182 12.927834 -5.405255 -2.615578 1.698246 1.162390 -54.763651 26.267803 87.529229 -174.432731 74.021957 172.856037 0.000000 0.000000 0.000000 
-2.147241 86.849983 2.165573 0.000000 0.000000 0.000000 -2.557288 -47.514611 3.130401 -34.831151 8.345577 15.648020 50.993724 -4.052858 5.126703 -20.840852 -12.701959 -12.240019 -3.363791 -0.019741 1.331736 0.000000 0.000000 0.000000 -3.872302 -45.108147 3.988094 -33.061135 -8.174440 -31.600843 58.727333 -8.584096 -9.861265 -9.272873 2.865970 18.494790 -6.827628 1.327096 4.323207 0.000000 0.000000 0.000000 0.155506 -45.525840 5.204776 9.613800 7.649588 -2.548968 2.022305 1.917157 -1.265224 0.027711 -0.678437 0.761923 0.000000 0.000000 0.000000 2.458752 1.815789 -1.219030 -0.127746 12.949114 1.495741 9.749507 17.988741 -2.606336 0.000000 0.000000 0.000000 3.093273 1.666939 -1.303051 1.416902 -1.572841 -9.435542 -2.371969 -0.974343 -1.475667 -62.164106 4.561525 -43.511133 179.698630 -72.871131 -179.250091 0.000000 0.000000 0.000000 3.555984 1.829293 -1.195247 3.813481 13.675546 -5.515759 -2.505466 0.641526 1.002670 -58.909220 24.564820 87.620481 -174.066374 75.823556 172.637170 0.000000 0.000000 0.000000 
-2.980355 87.806976 2.308678 0.000000 0.000000 0.000000 -1.843002 -45.344994 3.665531 -34.354229 8.496805 15.902933 49.160505 -4.281640 5.199584 -20.787841 -13.650680 -12.183036 -3.434624 -0.032750 1.489901 0.000000 0.000000 0.000000 -3.422874 -43.334149 4.414888 -34.889706 -6.794055 -32.244681 59.951098 -8.109246 -9.372572 -6.991847 3.274141 17.284234 -4.778141 1.317511 3.904842 0.000000 0.000000 0.000000 0.648169 -43.492305 5.492576 9.526042 7.732222 -2.668460 1.908834 1.945081 -1.195992 0.181378 -0.645474 0.847077 0.000000 0.000000 0.000000 2.390227 1.818898 -1.059541 0.083567 12.775573 1.176857 9.843688 17.035960 -1.819125 0.000000 0.000000 0.000000 2.750095 1.761335 -1.190193 1.455877 -3.277263 -8.980423 -2.222578 -1.348299 -1.861728 -66.251913 4.536740 -40.313409 179.639904 -71.491850 -179.196433 0.000000 0.000000 0.000000 3.312035 1.847631 -1.097729 3.906682 14.378632 -5.811173 -2.464735 0.029989 0.573197 -63.803201 22.350631 88.008442 -172.942794 78.237727 171.525038 0.000000 0.000000 0.000000 
